<svg xmlns="http://www.w3.org/2000/svg"><defs><font id="icomoon" horiz-adv-x="1024"><font-face units-per-em="1024" ascent="896" descent="-128"/><glyph/><glyph unicode="x" glyph-name="x" horiz-adv-x="1001" d="M281 543q-27-1-53-1h-83q-18 0-36.5-6T76 517.5t-23-32-9-45.5v-76h912v41q0 16-.5 30t-.5 18q0 13-5 29t-17 29.5-31.5 22.5-49.5 9H719v-97H281v97zm674-233v-52q0-23 .5-52t.5-58-10.5-47.5-26-30-33-16T855 50q-14-1-29.5-.5T796 50h-32l-45 128H280L236 50h-63q-20 0-45 1-25 0-41 9.5t-25.5 23T48 113t-4 30v167h911zm-792-63q-12 0-21-8.5t-9-21.5 9-21.5 21-8.5q13 0 22 8.5t9 21.5-9 21.5-22 8.5zm153-124q-8-26-14-48-5-19-10.5-37T284 13t-3-15 1-14.5 9.5-10.5 21.5-4h365q23 0 34 12t2 38q-5 13-9.5 30.5T695 84q-5 19-11 39H316zm20 375v228q0 11 2.5 23t10 21.5T369 786t34 6h188q31 0 51.5-14.5T663 725V498H336z"/><glyph unicode="" glyph-name="github" d="M507.558 871.085c133.996-2.995 244.452-48.938 332.864-137.83 88.352-88.951 133.996-201.563 136.931-334.961-1.438-106.682-32.406-198.568-91.288-280.032C827.123 36.738 750.571-18.07 654.851-52.153c-11.8-1.497-20.665 0-25.038 4.433-4.433 5.93-7.368 11.86-7.368 17.79l1.438 130.402c0 22.223-2.935 40.013-10.303 54.808-5.87 14.855-13.238 25.218-22.103 32.586 54.509 2.995 103.148 20.785 147.294 53.371 42.709 31.148 66.309 91.887 69.244 180.778 0 25.218-4.433 48.938-13.298 69.664-8.805 20.785-20.606 40.013-35.341 56.306 2.995 5.93 7.368 20.725 8.865 43.008 2.935 22.223-1.497 50.376-13.298 82.961 0 1.497-10.303 1.497-30.908-1.438-20.606-2.995-53.011-19.288-98.655-47.441-38.276 10.363-76.612 16.293-117.823 16.293s-79.547-5.93-117.823-16.293c-44.206 29.65-78.05 44.446-98.655 47.441-20.665 2.935-30.968 2.935-30.968 1.438-11.74-32.586-16.173-60.739-13.238-82.961 2.935-22.283 5.87-37.078 8.865-43.008-14.735-16.293-28.033-34.083-35.401-56.306-8.805-20.725-13.238-44.446-13.238-71.101 2.935-88.951 25.038-148.193 67.747-180.838 42.709-32.586 91.347-50.376 145.797-53.311-7.368-5.93-13.238-13.358-17.67-23.72-5.87-10.363-8.805-23.72-11.74-38.516-16.233-8.925-36.838-11.86-64.812-10.423-27.973 1.497-51.574 17.79-72.179 50.436-10.303 16.293-20.606 28.153-33.903 35.521-13.238 7.428-24.978 11.86-39.714 13.358-11.8 1.497-19.168 0-22.103-5.93-2.935-4.433 2.935-11.86 17.67-22.223s26.476-20.725 33.843-32.586c7.368-11.86 13.298-25.218 19.168-37.078 7.368-19.228 23.541-35.581 50.076-48.878 25.038-13.358 61.877-14.855 108.958-5.93l1.497-87.454c0-7.428-2.935-13.358-7.368-17.79-4.433-5.93-13.238-7.368-25.038-4.433-95.72 32.586-172.332 90.389-231.214 170.415-58.942 80.026-88.352 173.41-89.85 278.595 2.935 134.895 48.579 246.009 136.991 334.901 88.352 88.951 200.246 134.895 332.804 137.83l1.497-1.438z"/><glyph unicode="" glyph-name="facebook" d="M515.146 873.361c-264.93 0-479.386-214.462-479.386-479.386S250.222-85.411 515.146-85.411c264.93 0 479.386 214.462 479.386 479.386 0 264.93-214.462 479.386-479.386 479.386zm128.648-476.869h-83.225V96.249H436.938v300.243h-63.085V499.92h63.085v63.085c0 83.225 35.326 133.702 133.702 133.702h83.225V593.279h-50.472c-37.827 0-40.348-15.152-40.348-40.348v-50.472h93.329l-12.609-105.971z"/><glyph unicode="" glyph-name="in" d="M519.682 864.631c-268.006 0-485.266-217.261-485.266-485.266s217.261-485.266 485.266-485.266 485.266 217.261 485.266 485.266-217.261 485.266-485.266 485.266zM400.896 178.222H302.63v316.22h98.266v-316.22zm-49.74 355.042c-31.057 0-51.092 22.01-51.092 49.185 0 27.729 20.658 49.081 52.374 49.081 31.681 0 51.092-21.317 51.716-49.081-.035-27.175-20.035-49.185-52.998-49.185zm408.629-355.042h-98.266v175.25c0 40.797-14.246 68.492-49.809 68.492-27.14 0-43.258-18.752-50.398-36.776-2.634-6.412-3.293-15.529-3.293-24.575V178.292h-98.336v215.354c0 39.48-1.248 72.478-2.565 100.901h85.372l4.506-43.917h1.976c12.929 20.624 44.644 51.057 97.642 51.057 64.644 0 113.136-43.327 113.136-136.429V178.223z"/><glyph unicode="" glyph-name="address" d="M512 802.791c-184.863 0-334.723-149.86-334.723-334.723C177.277 283.2 439.59.283 439.59.283c39.99-46.681 105.439-46.929 145.039.248 0 0 262.093 282.669 262.093 467.536 0 184.863-149.856 334.723-334.723 334.723zm0-478.872c-85.53 0-154.844 69.322-154.844 154.844S426.471 633.607 512 633.607c85.522 0 154.84-69.323 154.84-154.844S597.522 323.919 512 323.919zm0 0"/><glyph unicode="" glyph-name="loader" d="M32.797 383.601c0-261.1 208.68-473.46 468.34-479.46-226.58 5.541-408.38 177.82-408.381 389.541 0 215.2 187.9 389.68 419.64 389.68 49.66 0 89.94 40.26 89.94 89.92 0 49.641-40.28 89.92-89.94 89.92-264.88.003-479.6-214.72-479.6-479.601zM992 383.6c0 261.1-208.68 473.46-468.34 479.44 226.56-5.52 408.4-177.8 408.4-389.52 0-215.2-187.92-389.68-419.66-389.68-49.641 0-89.92-40.28-89.92-89.94 0-49.62 40.26-89.901 89.92-89.9C777.28-96 992 118.72 992 383.6z"/><glyph unicode="" glyph-name="write" d="M655.228 635.503l53.975 53.975 107.95-107.95-53.975-53.975-107.95 107.95zM385.352 149.726L277.401 257.677l350.838 350.838L736.19 500.564 385.352 149.726zM223.424 95.752l134.939 26.988-107.951 107.951z"/><glyph unicode="" glyph-name="enter" d="M512.356 461.315v155.249L745.24 383.69 512.356 73.191V228.44s-359.502.012-386.525 415.197C75.797 569.393 46.59 479.953 46.59 383.689c0-257.225 208.531-465.747 465.767-465.747s465.766 208.522 465.766 465.747-208.531 465.748-465.767 465.748c-153.551 0-289.741-74.306-374.587-188.914 94.793-199.199 374.587-199.209 374.587-199.209z"/><glyph unicode="" glyph-name="next" d="M356.049 30.834q16.384 0 28.52 12.136l311.903 310.689q10.923 12.136 10.923 28.52t-10.923 28.52L384.569 721.388q-12.136 12.136-28.52 12.136t-27.913-12.136-11.529-28.52 10.923-28.52l283.989-282.776L327.53 98.796q-10.923-10.923-10.923-27.913t11.529-28.52 27.913-11.529z"/><glyph unicode="" glyph-name="search" d="M940.571 43.307L726.096 258.029c44.778 60.855 69.263 134.077 69.263 211.012 0 95.732-37.354 185.78-104.889 253.311-67.781 67.536-157.825 104.889-253.557 104.889s-185.78-37.354-253.311-104.889c-139.518-139.518-139.518-366.859 0-506.626 67.536-67.536 157.579-104.889 253.311-104.889 77.18 0 150.155 24.487 211.257 69.263L862.645-34.622c21.52-21.52 56.403-21.52 77.676 0 21.77 21.52 21.77 56.403.25 77.921zM252.866 284.744c-101.425 101.673-101.425 266.916 0 368.342 49.227 49.227 114.535 76.192 184.295 76.192 69.511 0 134.819-26.966 184.047-76.192s76.443-114.535 76.443-184.295c0-69.762-27.211-135.065-76.443-184.295-49.227-49.227-114.535-76.192-184.047-76.192-69.762.25-135.065 27.211-184.295 76.443z"/><glyph unicode="" glyph-name="like" d="M344 630c36 0 78-18 102-42l66-66 66 66c30 30 66 42 102 42 18 0 36-6 54-12 42-24 66-54 72-102 6-42-6-84-36-114L512 138 254 402c-30 30-48 72-42 114s36 78 72 102c18 6 42 12 60 12m0 60c-30 0-60-6-84-18-126-66-144-222-54-312L470 96c12-12 30-18 42-18s30 6 36 18l264 264c90 90 72 246-54 312-24 12-54 18-84 18-54 0-108-24-144-60l-18-24-24 24c-36 36-90 60-144 60z"/><glyph unicode="" glyph-name="zhihu" d="M510.163 865.02c268.172 0 485.569-217.397 485.569-485.569S778.335-106.118 510.163-106.118 24.594 111.279 24.594 379.451 241.991 865.02 510.163 865.02zm255.564-685.037v408.062H536.408V179.983h40.982l14.892-51.217 72.093 51.217h101.353zm-364.623 177.16h111.504s0 43.626-21.808 46.048c-21.83 2.421-89.698 0-89.698 0v135.733h100.583s-1.199 44.837-20.609 44.837H317.48l25.44 73.933s-41.194-2.434-55.735-27.873c-14.554-25.451-61.801-156.342-61.801-156.342s15.741-7.265 42.415 12.121c26.662 19.386 35.138 53.324 35.138 53.324l48.469 2.421 1.222-138.156s-83.62 1.211-100.583 0c-16.976-1.211-26.662-46.048-26.662-46.048h127.246s-10.909-76.354-43.638-132.1c-32.705-55.746-94.529-99.373-94.529-99.373s44.849-18.175 88.475 7.277c43.638 25.44 75.807 137.375 75.807 137.375l102.33-125.267s9.349 59.612-1.642 76.46c-11.003 16.835-70.8 84.539-70.8 84.539l-26.127-23.029 18.593 74.119zm318.004 185.485V226.336h-47.644l-60.753-45.804-13.249 45.804h-12.505v316.292z"/><glyph unicode="" glyph-name="time" horiz-adv-x="1025" d="M512 709.888c-179.983 0-325.888-145.905-325.888-325.888S332.017 58.112 512 58.112 837.888 204.017 837.888 384 691.983 709.888 512 709.888zm201.634-527.521c-26.201-26.201-56.701-46.767-90.652-61.127C587.853 106.381 550.514 98.848 512 98.848s-75.853 7.534-110.982 22.392c-33.951 14.36-64.45 34.926-90.652 61.127s-46.767 56.701-61.127 90.652c-14.858 35.128-22.392 72.468-22.392 110.981s7.534 75.853 22.392 110.982c14.36 33.951 34.926 64.45 61.127 90.652s56.701 46.767 90.652 61.127c35.129 14.858 72.469 22.392 110.982 22.392s75.853-7.534 110.982-22.392c33.951-14.36 64.45-34.926 90.652-61.127s46.767-56.701 61.127-90.652c14.859-35.129 22.392-72.468 22.392-110.982s-7.534-75.853-22.392-110.982c-14.36-33.95-34.926-64.45-61.127-90.651zM613.841 384h-101.84v183.132c0 11.202-9.166 20.368-20.368 20.368-11.203 0-20.368-9.166-20.368-20.368V363.634v-.001-.18c0-11.203 9.165-20.368 20.368-20.368.9 0 1.785.065 2.655.18h119.553c11.203 0 20.368 9.165 20.368 20.368-.001 11.202-9.166 20.367-20.368 20.367z"/><glyph unicode="" glyph-name="category" horiz-adv-x="1168" d="M888.78 92.39c0-27.313-22.209-49.383-49.383-49.383H219.485l86.904 409.274c0 27.313 22.209 49.383 49.383 49.383h569.977c27.313 0 49.383-22.209 49.383-49.383L888.78 92.39M318.251 538.633h558.114v48.832c0 27.313-22.209 49.383-49.383 49.383H528.889v45.383c0 27.313-22.209 49.383-49.383 49.383H231.348c-27.175 0-49.383-22.209-49.383-49.383V92.942l86.904 396.86c0 26.623 22.071 48.832 49.383 48.832"/><glyph unicode="" glyph-name="quotes" d="M945.773 401.82H782.924v38.003c0 97.987 31.555 143.631 99.342 143.631 11.632 0 21.042 9.428 21.042 21.042v112.473c0 11.614-9.41 21.024-21.042 21.024-92.316 0-166.732-29.586-221.208-87.909-54.078-57.889-81.515-158.062-81.515-297.701V67.903c0-11.614 9.465-21.024 21.097-21.024h345.114c11.614 0 21.079 9.41 21.079 21.024V380.74c0 11.635-9.427 21.068-21.06 21.079h-.001zm-516.597 0H266.327v38.003c0 97.987 31.573 143.631 99.36 143.631 11.614 0 21.042 9.428 21.042 21.042v112.473c0 11.614-9.428 21.024-21.042 21.024-93.111 0-167.762-29.586-221.894-87.927C90.148 592.141 62.91 491.968 62.91 352.383V67.903c0-11.614 9.447-21.024 21.097-21.024h345.15c11.614 0 21.061 9.41 21.061 21.024V380.758c0 11.625-9.419 21.05-21.041 21.061h-.001z"/><glyph unicode="" glyph-name="email2" d="M512.011 336.873L901.588 661.46c-2.111.384-4.008 1.264-6.198 1.264H128.632c-2.145 0-4.053-.869-6.164-1.264l389.543-324.587zM930.25 627.865c0 3.658-1.005 7.044-2.111 10.374L651.981 408.06l276.576-276.632c.711 2.788 1.693 5.475 1.693 8.489v487.947zM95.895 638.273c-1.072-3.353-2.145-6.694-2.145-10.408V139.929c0-3.048 1.05-5.723 1.738-8.512l276.666 276.655-276.26 230.201zm529.151-252.61l-101.904-84.881c-3.195-2.721-7.146-4.03-11.131-4.03-3.951 0-7.925 1.31-11.153 4.03l-101.814 84.835-278.845-278.833c2.743-.722 5.464-1.727 8.433-1.727h766.77c3.025 0 5.746.993 8.546 1.727L625.047 385.663z"/><glyph unicode="" glyph-name="prev" d="M655.579 34.699h-.047c-10.056 0-19.158 4.084-25.738 10.685l-312.647 312.79c-14.246 14.247-14.246 37.337 0 51.583l312.645 312.858c14.246 14.245 37.325 14.245 51.593 0 14.246-14.214 14.246-37.337 0-51.583l-286.86-287.071L681.386 96.969c14.246-14.246 14.246-37.337 0-51.584-6.593-6.602-15.707-10.686-25.774-10.686h-.036.002z"/><glyph unicode="" glyph-name="email" d="M512 390L352.67 507.99h318.66L512 390zm14.67-50.67l208.68 153.99V259.98H288.68v233.34l210-153.99c3.927-3.36 9.067-5.405 14.685-5.405s10.758 2.045 14.716 5.431l-.031-.026zM512 864C246.89 864 32 649.11 32 384S246.89-96 512-96s480 214.89 480 480-214.89 480-480 480zm273.33-628.68c0-13.984-11.336-25.32-25.32-25.32H264.02c-13.984 0-25.32 11.336-25.32 25.32v295.32c.368 13.697 11.56 24.66 25.311 24.66H760.01c13.77 0 24.96-10.98 25.32-24.63z"/><glyph unicode="" glyph-name="share" d="M714.893 491.352c-38.594 0-72.584 19.416-93.016 48.913L371.23 407.559c2.54-9.398 4.318-19.099 4.318-29.323 0-10.208-1.778-19.908-4.318-29.307l250.647-132.706c20.432 29.513 54.438 48.898 93.016 48.898 62.471 0 113.115-50.612 113.115-113.083S777.364 38.923 714.893 38.923c-62.487 0-113.115 50.628-113.115 113.115 0 1.08.286 2.08.318 3.128L338.288 294.857c-20.099-18.257-46.548-29.735-75.855-29.735-62.455 0-113.115 50.66-113.115 113.115 0 62.487 50.644 113.115 113.115 113.115 29.307 0 55.772-11.431 75.855-29.72l263.808 139.675c-.032 1.064-.318 2.064-.318 3.159 0 62.471 50.628 113.115 113.115 113.115 62.471 0 113.115-50.644 113.115-113.115 0-62.487-50.644-113.115-113.115-113.115zm0-402.515c34.879 0 63.17 28.291 63.17 63.17s-28.291 63.17-63.17 63.17c-34.895 0-63.17-28.291-63.17-63.17s28.275-63.17 63.17-63.17zm-455.112 352.57c-34.895 0-63.186-28.291-63.186-63.186 0-34.879 28.291-63.17 63.186-63.17s63.17 28.291 63.17 63.17c.016 34.895-28.275 63.186-63.17 63.186zm455.112 226.23c-34.895 0-63.17-28.291-63.17-63.17 0-34.895 28.275-63.186 63.17-63.186 34.879 0 63.17 28.291 63.17 63.186 0 34.879-28.291 63.17-63.17 63.17z"/><glyph unicode="" glyph-name="weibo" d="M420.726 305.335c-17.542 0-30.872-13.511-30.863-28.223 0-14.767 13.959-26.729 30.863-25.079 16.842 1.611 29.85 14.893 29.85 29.59 0 14.705-12.307 23.712-29.85 23.712zm25.999 105.386c-88.425-11.081-154.208-67.41-146.883-125.789 7.302-58.419 84.991-96.78 173.432-85.635 88.441 11.074 154.192 67.417 146.868 125.844-7.326 58.364-84.976 96.694-173.417 85.581zm2.64-195.029c-47.549-4.606-86.932 29.229-86.932 70.64 0 41.403 37.529 79.725 86.932 79.725 49.381 0 84.237-25.496 84.237-66.907s-36.663-78.97-84.237-83.458zM512 863.992c-265.094 0-479.996-214.902-479.996-479.996S246.906-96 512-96s479.996 214.902 479.996 479.996S777.094 863.992 512 863.992zm170.929-617.87c-57.877-70.325-184.191-91.546-269.497-78.53-85.086 12.803-198.857 76.267-166.477 180.56 60.053 130.104 165.675 180.16 165.675 180.16s52.288 18.336 82.327 7.278c26.84-15.884 16.685-51.762 16.685-51.762-15.569-36.703 12.189-18.972 21.094-17.833 8.881 1.037 42.802 16.709 75.025 12.253 32.231-4.511 47.329-34.455 40.664-53.412-6.712-18.886-22.242-29.944 4.441-36.648 80.827-20.19 72.582-90.413 30.063-142.065zM652.64 490.383c-6.327 2.428-14.752 1.376-21.747 2.885-22.415 5.007-19.789 18.988-15.53 26.894 4.385 8.393 21.236 8.952 30.651 8.881 33.795-.487 70.137-30.267 63.574-78.633-1.281-9.407-1.989-15.562-10.178-21.464-12.237-8.622-30.211-3.395-26.478 27.759 2.153 18.502-8.52 29.324-20.293 33.678zm123.367-78.782c-12.363-20.025-40.373-10.005-37.677 13.573.637 5.635 1.753 13.935 2.413 17.346 10.877 61.838-46.582 124.39-104.993 119.14-8.08-.739-18.068-1.871-25.213-1.069-11.074 1.234-17.998 11.074-15.986 23.02 4.315 25.268 43.093 20.749 61.35 18.816 46.567-4.936 91.027-32.137 110.612-74.656 0-.001 28.867-52.336 9.494-116.17zm-310.404-93.078c-7.16 0-12.559-5.549-12.559-11.553 0-5.95 5.69-10.807 12.559-10.138 6.822.645 12.127 6.052 12.127 12.009-.001 5.965-5.023 9.683-12.127 9.683z"/><glyph unicode="" glyph-name="tab" d="M801.078 384.416c21.483-24.683 21.711-48.68.686-71.991L579.619 88.907c-9.599-7.768-20.567-11.198-32.909-10.282-12.342.912-21.941 4.799-28.796 11.655-55.307 55.307-104.674 104.9-148.098 148.782l-54.85 54.85c-17.828 17.828-33.711 33.825-47.651 47.994-13.94 14.173-25.37 25.714-34.282 34.626s-13.597 13.826-14.055 14.741c-1.373 1.828-3.773 5.143-7.199 9.942-3.431 4.798-5.144 10.624-5.144 17.481v41.138c0 10.515.115 22.399.343 35.656.229 13.254.343 26.736.343 40.452.458 31.997.912 67.649 1.37 106.957.458 0 .686.228.686.686a326.842 326.842 0 0 0 3.087 17.141c1.141 5.486 4.227 10.74 9.255 15.768 4.571 5.028 9.828 8.458 15.768 10.285 5.944 1.828 11.427 2.744 16.454 2.744h226.258c.916 0 2.972-.115 6.173-.344 3.198-.228 5.486-.572 6.856-1.026a62.454 62.454 0 0 0 15.084-8.915l292.763-294.82zM310.854 542.109c12.342 0 22.852 4.456 31.539 13.371 8.683 8.913 13.025 19.541 13.025 31.879 0 12.342-4.342 22.856-13.025 31.54-8.687 8.687-19.197 13.028-31.539 13.028s-22.856-4.341-31.54-13.028c-8.687-8.683-13.028-19.198-13.028-31.54 0-12.338 4.341-22.967 13.028-31.879 8.683-8.915 19.197-13.371 31.54-13.371zm0 0"/><glyph unicode="" glyph-name="comment" d="M432.545 617.213q-63.315 0-118.354-21.519t-87.524-58.35-32.485-79.041q0-33.934 21.933-65.385t61.66-54.625l40.141-23.174-14.484-34.761q14.07 8.277 25.657 16.139l18.208 12.829 21.933-4.138q32.278-5.794 63.315-5.794 63.315 0 118.354 21.519t87.524 58.35 32.485 79.041-32.485 79.041-87.524 58.35-118.354 21.519zm0 52.969q79.041 0 146.288-28.347t106.147-77.179 38.9-106.353-38.9-106.353-106.147-77.179-146.288-28.347q-35.589 0-72.833 6.621-51.314-36.417-115.044-52.97-14.898-3.724-35.589-6.621h-1.241q-4.552 0-8.483 3.311t-4.759 8.69q-.414 1.241-.414 2.69t2.069 2.69.828 2.483l1.035 2.069 1.448 2.276 1.655 2.069 1.862 2.069 1.655 1.862q2.069 2.483 9.518 10.346t10.759 12.208 9.311 12.001 10.346 15.932 8.483 18.208q-51.314 29.796-80.696 73.247t-29.382 92.697q0 57.522 38.9 106.353t106.147 77.179 146.288 28.347zm340.166-483.763q4.138-9.932 8.483-18.208t10.346-15.932 9.311-12.001 10.759-12.208 9.518-10.346q.414-.414 1.655-1.862t1.862-2.069 1.655-2.069 1.448-2.276l1.035-2.069.828-2.483 2.069-2.69-.414-2.69q-1.241-5.794-5.38-9.104t-9.104-2.897q-20.691 2.897-35.589 6.621-63.729 16.553-115.044 52.97-37.244-6.621-72.833-6.621-112.147 0-195.326 54.625 24.002-1.655 36.417-1.655 66.626 0 127.872 18.622t109.25 53.384q51.728 38.072 79.455 87.731t27.726 105.112q0 31.865-9.518 62.902 53.384-29.382 84.421-73.661t31.037-95.18q0-49.659-29.382-92.904t-80.696-73.04z"/><glyph unicode="" glyph-name="eye" horiz-adv-x="1025" d="M791.379 382.056q-55.285 85.825-138.572 128.4 22.184-37.826 22.184-81.845 0-67.296-47.836-115.108t-115.108-47.836-115.108 47.836-47.836 115.108q0 44.018 22.184 81.845-83.288-42.552-138.572-128.4 48.371-74.559 121.3-118.763t158.033-44.181 158.033 44.181 121.3 118.763zM529.505 521.722q0 7.286-5.098 12.36t-12.36 5.098q-45.461 0-78.027-32.542t-32.542-78.027q0-7.286 5.098-12.36t12.36-5.098 12.36 5.098 5.098 12.36q0 31.285 22.184 53.469t53.469 22.184q7.286 0 12.36 5.098t5.098 12.36zm308.43-139.666q0-12.36-7.286-25.093-50.932-83.66-136.943-134.033t-181.683-50.373-181.683 50.559-136.943 133.847q-7.286 12.733-7.286 25.093t7.286 25.093q50.932 83.288 136.943 133.847t181.683 50.559 181.683-50.559 136.943-133.847q7.286-12.733 7.286-25.093z"/><glyph unicode="" glyph-name="menu" d="M152 664h720q16.56 0 28.28-11.72T912 624t-11.72-28.28T872 584H152q-16.56 0-28.28 11.72T112 624t11.72 28.28T152 664zm0-480h720q16.56 0 28.28-11.72T912 144t-11.72-28.28T872 104H152q-16.56 0-28.28 11.72T112 144t11.72 28.28T152 184zm0 240h720q16.56 0 28.28-11.72T912 384t-11.72-28.28T872 344H152q-16.56 0-28.28 11.72T112 384t11.72 28.28T152 424z"/><glyph unicode="" glyph-name="thanks" d="M830.146 582.841H714.818c33.14 51.699 30.489 120.63-10.605 163.05-22.535 22.535-53.024 35.791-84.839 35.791-34.466 0-68.932-15.907-94.118-42.419-5.302-5.302-9.279-10.605-13.256-17.233-3.977 6.628-7.954 11.93-13.256 17.233-25.187 27.838-59.652 42.419-94.118 42.419-31.815 0-60.978-13.256-83.513-35.791-41.094-42.419-43.745-111.351-10.605-163.05H193.855c-43.745 0-79.536-35.791-79.536-79.536v-53.024c0-14.582 11.93-26.512 26.512-26.512h742.34c14.582 0 26.512 11.93 26.512 26.512v53.024c0 43.745-35.791 79.536-79.536 79.536zm-357.914 0c-27.838 0-67.606 10.605-90.141 34.466-19.884 21.21-22.535 55.676-3.977 72.908 9.279 9.279 18.559 10.605 26.512 10.605 13.256 0 26.512-6.628 35.791-17.233 22.535-25.187 31.815-67.606 31.815-94.118v-6.628zm169.678 34.466c-22.535-23.861-62.304-34.466-90.141-34.466v7.954c0 26.512 9.279 68.932 31.815 94.118 10.605 10.605 23.861 17.233 35.791 17.233 6.628 0 17.233-1.326 26.512-10.605 17.233-18.559 15.907-51.699-3.977-74.234zm188.236-273.075H551.768V-13.682h228.004c42.419 0 76.885 34.466 76.885 76.885V317.72c0 14.582-11.93 26.512-26.512 26.512zM167.342 317.72V65.855c0-43.745 35.791-79.536 79.536-79.536h225.353v357.914H193.853c-14.582 0-26.512-11.93-26.512-26.512z"/><glyph unicode="" glyph-name="top" d="M122.279 188.848c19.806-19.806 51.846-19.806 71.07 0l317.486 317.486 317.486-317.486c19.806-19.806 51.846-19.806 71.07 0 19.806 19.806 19.806 51.846 0 71.07L546.37 612.939c-19.806 19.806-51.846 19.806-71.07 0L122.279 259.918c-9.903-9.903-14.564-22.719-14.564-35.535-.583-12.816 4.66-25.632 14.564-35.535z"/><glyph unicode="" glyph-name="telegram" d="M668.96 163.817l78.754 371.246c6.96 32.674-11.794 45.531-33.223 37.509L251.634 394.183c-31.611-12.309-31.063-30-5.349-38.023l118.389-36.96 274.834 173.04c12.857 8.571 24.651 3.737 15.017-4.834l-222.309-200.88-8.571-122.16c12.309 0 17.691 5.349 24.103 11.794l57.84 55.714 120-88.389c21.977-12.309 37.509-5.897 43.406 20.366zM992 384c0-265.166-214.834-480-480-480S32 118.834 32 384s214.834 480 480 480 480-214.834 480-480z"/><glyph unicode="" glyph-name="douban" d="M379.29 463.667h265.489V357.444H379.29v106.223zM512 861.867C248.081 861.867 34.133 647.919 34.133 384S248.081-93.867 512-93.867 989.867 120.081 989.867 384 775.919 861.867 512 861.867zM299.622 622.933h424.755v-53.111H299.622v53.111zm398.2-106.223V304.332H326.178V516.71h371.644zm53.111-371.643H273.066v53.111h129.911c-12.766 26.556-29.423 55.228-50.039 86.153l49.971 19.456c19.866-29.355 37.547-52.565 53.248-105.677h94.618c18.705 26.556 35.157 67.174 49.289 106.018l54.34-20.139c-14.199-32.768-29.559-59.324-45.807-85.879h142.336v-53.043z"/><glyph unicode="" glyph-name="rss" d="M351.286 159q0-40.179-28.125-68.304t-68.304-28.125-68.304 28.125T158.428 159t28.125 68.304 68.304 28.125 68.304-28.125T351.286 159zm257.143-61.775q1.004-14.063-8.538-24.107-9.04-10.547-23.605-10.547h-67.801q-12.556 0-21.596 8.287t-10.045 20.843q-11.049 115.011-92.662 196.624t-196.624 92.662q-12.556 1.004-20.843 10.045t-8.287 21.596v67.801q0 14.565 10.547 23.605 8.538 8.538 21.596 8.538h2.511q80.357-6.529 153.683-40.43t130.078-91.155q57.254-56.752 91.155-130.078t40.43-153.683zm257.142-1.004q1.004-13.56-9.04-23.605-9.04-10.045-23.103-10.045h-71.819q-13.058 0-22.349 8.789t-9.794 21.345q-6.027 107.98-50.725 205.162t-116.267 168.75-168.75 116.267-205.162 51.228q-12.556.502-21.345 9.794t-8.789 21.847v71.819q0 14.063 10.045 23.103 9.04 9.04 22.098 9.04h1.507q131.585-6.529 251.869-60.268t213.7-147.656q93.917-93.415 147.656-213.7t60.268-251.869z"/><glyph unicode="" glyph-name="twitter" d="M512 864C246.906 864 32 649.094 32 384S246.906-96 512-96s480 214.906 480 480-214.906 480-480 480zm238.579-357.638c.23-5.28.365-10.598.365-15.917 0-162.662-123.821-350.246-350.227-350.246-69.523 0-134.227 20.371-188.698 55.315a251.311 251.311 0 0 1 29.357-1.728c57.677 0 110.746 19.68 152.89 52.704-53.875.979-99.322 36.576-114.989 85.478a122.803 122.803 0 0 1 23.155-2.208c11.232 0 22.099 1.517 32.429 4.32-56.314 11.309-98.746 61.056-98.746 120.71 0 .518 0 1.037.019 1.555 16.589-9.216 35.578-14.765 55.757-15.398-33.024 22.08-54.758 59.75-54.758 102.47 0 22.56 6.067 43.699 16.666 61.882 60.71-74.477 151.411-123.475 253.728-128.621-2.093 9.005-3.187 18.413-3.187 28.051 0 67.987 55.123 123.091 123.091 123.091 35.405 0 67.392-14.957 89.856-38.88 28.032 5.51 54.374 15.763 78.163 29.875-9.197-28.742-28.704-52.877-54.125-68.102 24.902 2.976 48.634 9.6 70.694 19.373-16.493-24.691-37.363-46.368-61.421-63.725z"/><glyph unicode="" glyph-name="juejin" horiz-adv-x="1272" d="M709.641 730.723l-95.315 75.152-104.741-82.688 104.741-83.502 105.091 83.502-9.776 7.536zm361.212-291.472L614.064 79.057l-456.498 359.99-67.442-54.175 523.94-413.117 524.231 413.35-67.442 54.145zM614.065 410.04L365.479 605.994l-67.413-54.116 315.97-249.168 316.29 249.401-67.413 54.145L614.065 410.04z"/></font>
</defs>
</svg>
